<svg xmlns="http://www.w3.org/2000/svg" xmlns:xlink="http://www.w3.org/1999/xlink" version="1.1" x="0px" y="0px" viewBox="0 0 74 92.5" enable-background="new 0 0 74 74" xml:space="preserve"><g><path d="M24,39h6c2.206,0,4-1.794,4-4v-6c0-2.206-1.794-4-4-4h-6c-2.206,0-4,1.794-4,4v6C20,37.206,21.794,39,24,39z M22,29   c0-1.103,0.897-2,2-2h6c1.103,0,2,0.897,2,2v6c0,1.103-0.897,2-2,2h-6c-1.103,0-2-0.897-2-2V29z"/><path d="M27,35c1.654,0,3-1.346,3-3s-1.346-3-3-3s-3,1.346-3,3S25.346,35,27,35z M27,31c0.552,0,1,0.448,1,1s-0.448,1-1,1   s-1-0.448-1-1S26.448,31,27,31z"/><path d="M50,37h-6c-2.206,0-4,1.794-4,4v6c0,2.206,1.794,4,4,4h6c2.206,0,4-1.794,4-4v-6C54,38.794,52.206,37,50,37z M52,47   c0,1.103-0.897,2-2,2h-6c-1.103,0-2-0.897-2-2v-6c0-1.103,0.897-2,2-2h6c1.103,0,2,0.897,2,2V47z"/><rect x="44" y="41" width="2" height="2"/><rect x="48" y="41" width="2" height="2"/><rect x="44" y="45" width="2" height="2"/><rect x="48" y="45" width="2" height="2"/><rect x="36" y="25" width="14" height="2"/><rect x="52" y="25" width="2" height="2"/><rect x="26" y="49" width="12" height="2"/><rect x="22" y="49" width="2" height="2"/><path d="M65,13H53.113c-0.467-1.243-1.103-2.304-1.875-3.022C51.706,9.449,52,8.761,52,8c0-1.654-1.346-3-3-3s-3,1.346-3,3   c0,0.761,0.294,1.449,0.762,1.978c-0.772,0.718-1.409,1.779-1.875,3.022H9c-0.553,0-1,0.447-1,1v48c0,0.553,0.447,1,1,1h56   c0.553,0,1-0.447,1-1V14C66,13.447,65.553,13,65,13z M64,21h-6v-6h6V21z M12.887,53H10v-6h4.184C14.072,47.314,14,47.648,14,48   c0,0.761,0.294,1.449,0.762,1.978C13.991,50.696,13.354,51.757,12.887,53z M56,23v30H21.113c-0.467-1.243-1.103-2.304-1.875-3.022   C19.706,49.449,20,48.761,20,48c0-1.302-0.839-2.402-2-2.816V23H56z M16,48c0-0.552,0.448-1,1-1s1,0.448,1,1s-0.448,1-1,1   S16,48.552,16,48z M34,21v-6h6v6H34z M32,21h-6v-6h6V21z M24,21h-6v-6h6V21z M16,29h-6v-6h6V29z M16,31v6h-6v-6H16z M16,39v6h-6v-6   H16z M17,51c1.202,0,2.697,2.723,2.96,6h-5.92C14.303,53.723,15.798,51,17,51z M21,59c0.553,0,1-0.447,1-1   c0-1.005-0.112-2.024-0.314-3H24v6h-6v-2H21z M26,55h6v6h-6V55z M34,55h6v6h-6V55z M42,55h6v6h-6V55z M50,55h6v6h-6V55z M58,47h6v6   h-6V47z M58,45v-6h6v6H58z M58,37v-6h6v6H58z M58,29v-6h6v6H58z M56,15v6h-6v-2h3c0.553,0,1-0.447,1-1c0-1.005-0.112-2.024-0.314-3   H56z M48,8c0-0.552,0.448-1,1-1s1,0.448,1,1s-0.448,1-1,1S48,8.552,48,8z M49,11c1.202,0,2.697,2.723,2.96,6h-5.92   C46.303,13.723,47.798,11,49,11z M45,19h3v2h-6v-6h2.314C44.112,15.976,44,16.995,44,18C44,18.553,44.447,19,45,19z M16,15v6h-6v-6   H16z M10,55h2.314C12.112,55.976,12,56.995,12,58c0,0.553,0.447,1,1,1h3v2h-6V55z M58,61v-6h6v6H58z"/></g><text x="0" y="89" fill="#000000" font-size="5px" font-weight="bold" font-family="'Helvetica Neue', Helvetica, Arial-Unicode, Arial, Sans-serif">Created by Nack_Thanakorn</text><text x="0" y="94" fill="#000000" font-size="5px" font-weight="bold" font-family="'Helvetica Neue', Helvetica, Arial-Unicode, Arial, Sans-serif">from the Noun Project</text></svg>