<svg xmlns="http://www.w3.org/2000/svg" version="1.1" viewBox="-5.0 -10.0 110.0 135.0">
 <path d="m59.82 61.062v-41.562c0-3.5859-2.9141-6.5-6.5-6.5h-32.254c-3.5859 0-6.5 2.9141-6.5 6.5v41.562c0 3.5859 2.9141 6.5 6.5 6.5h32.258c3.5859 0 6.5-2.9141 6.5-6.5zm-40.254 0v-41.562c0-0.82812 0.67188-1.5 1.5-1.5h32.258c0.82812 0 1.5 0.67188 1.5 1.5v41.562c0 0.82812-0.67188 1.5-1.5 1.5h-32.258c-0.82812 0-1.5-0.67188-1.5-1.5zm65.715-19.754-8.9375 40.59c-0.66797 3.0312-3.3633 5.1016-6.3477 5.1016-0.46094 0-0.92969-0.050781-1.3984-0.15234l-31.504-6.9375c-1.3477-0.29688-2.1992-1.6289-1.9023-2.9805 0.29688-1.3477 1.6328-2.2031 2.9805-1.9023l31.504 6.9375c0.80859 0.18359 1.6094-0.33594 1.7891-1.1406l8.9375-40.59c0.085937-0.39062 0.015625-0.79297-0.20312-1.1289-0.21484-0.33594-0.55078-0.57031-0.94141-0.65625l-9.8672-2.1719c-1.3477-0.29688-2.1992-1.6289-1.9023-2.9805 0.29688-1.3477 1.6289-2.2031 2.9805-1.9023l9.8672 2.1719c1.6953 0.37109 3.1445 1.3828 4.0781 2.8477 0.93359 1.4609 1.2422 3.2031 0.87109 4.8984z"/>
<text x="0.0" y="117.5" font-size="5.0" font-weight="bold" font-family="Arbeit Regular, Helvetica, Arial-Unicode, Arial, Sans-serif" fill="#000000">Created by zapesicon</text><text x="0.0" y="122.5" font-size="5.0" font-weight="bold" font-family="Arbeit Regular, Helvetica, Arial-Unicode, Arial, Sans-serif" fill="#000000">from Noun Project</text></svg>