<svg xmlns="http://www.w3.org/2000/svg" version="1.1" viewBox="-5.0 -10.0 110.0 135.0">
 <path d="m70.359 71.121-9.4219-36.832c7.8945-6.0391 9.3984-17.34 3.3555-25.234-6.0391-7.8945-17.336-9.3945-25.23-3.3555-7.8945 6.0391-9.3984 17.34-3.3555 25.234 0.96484 1.2617 2.0938 2.3906 3.3555 3.3555l-9.4219 36.832c-12.273 1.2266-21.625 11.551-21.641 23.887 0 1.6562 1.3438 3 3 3h78c1.6562 0 3-1.3438 3-3-0.015625-12.336-9.3672-22.66-21.641-23.887zm-20.359-63.113c6.6289 0 12 5.3711 12 12 0 6.6289-5.3711 12-12 12s-12-5.3711-12-12c0.007812-6.625 5.375-11.996 12-12zm0 30c1.8594 0 3.707-0.28516 5.4766-0.85156l8.6602 33.852h-28.273l8.6602-33.852c1.7695 0.5625 3.6172 0.85156 5.4766 0.85156zm-35.75 54c1.4766-8.6562 8.9688-14.988 17.75-15h36c8.7812 0.011719 16.273 6.3438 17.75 15z"/>
<text x="0.0" y="117.5" font-size="5.0" font-weight="bold" font-family="Arbeit Regular, Helvetica, Arial-Unicode, Arial, Sans-serif" fill="#000000">Created by Side Project</text><text x="0.0" y="122.5" font-size="5.0" font-weight="bold" font-family="Arbeit Regular, Helvetica, Arial-Unicode, Arial, Sans-serif" fill="#000000">from Noun Project</text></svg>