<svg xmlns="http://www.w3.org/2000/svg">
    <defs>
        <symbol id = "icon-cards" viewBox = "0 0 1200 1200">
            <svg xmlns="http://www.w3.org/2000/svg" version="1.1" viewBox="-5.0 -10.0 110.0 135.0">
                <path d="m59.82 61.062v-41.562c0-3.5859-2.9141-6.5-6.5-6.5h-32.254c-3.5859 0-6.5 2.9141-6.5 6.5v41.562c0 3.5859 2.9141 6.5 6.5 6.5h32.258c3.5859 0 6.5-2.9141 6.5-6.5zm-40.254 0v-41.562c0-0.82812 0.67188-1.5 1.5-1.5h32.258c0.82812 0 1.5 0.67188 1.5 1.5v41.562c0 0.82812-0.67188 1.5-1.5 1.5h-32.258c-0.82812 0-1.5-0.67188-1.5-1.5zm65.715-19.754-8.9375 40.59c-0.66797 3.0312-3.3633 5.1016-6.3477 5.1016-0.46094 0-0.92969-0.050781-1.3984-0.15234l-31.504-6.9375c-1.3477-0.29688-2.1992-1.6289-1.9023-2.9805 0.29688-1.3477 1.6328-2.2031 2.9805-1.9023l31.504 6.9375c0.80859 0.18359 1.6094-0.33594 1.7891-1.1406l8.9375-40.59c0.085937-0.39062 0.015625-0.79297-0.20312-1.1289-0.21484-0.33594-0.55078-0.57031-0.94141-0.65625l-9.8672-2.1719c-1.3477-0.29688-2.1992-1.6289-1.9023-2.9805 0.29688-1.3477 1.6289-2.2031 2.9805-1.9023l9.8672 2.1719c1.6953 0.37109 3.1445 1.3828 4.0781 2.8477 0.93359 1.4609 1.2422 3.2031 0.87109 4.8984z"/>
                <text x="0.0" y="117.5" font-size="5.0" font-weight="bold" font-family="Arbeit Regular, Helvetica, Arial-Unicode, Arial, Sans-serif" fill="#000000">Created by zapesicon</text><text x="0.0" y="122.5" font-size="5.0" font-weight="bold" font-family="Arbeit Regular, Helvetica, Arial-Unicode, Arial, Sans-serif" fill="#000000">from Noun Project</text></svg>
        </symbol>
        <symbol id = "icon-dice" viewBox = "0 0 1200 1200">
            <svg xmlns="http://www.w3.org/2000/svg" version="1.1" viewBox="-5.0 -10.0 110.0 135.0">
                <path d="m50 17.105c-1.0234 0-2.0469 0.26562-2.9609 0.79297l-23.359 13.484c-1.8281 1.0547-2.9609 3.0156-2.9609 5.1289v26.973c0 2.1133 1.1328 4.0703 2.9609 5.1289l23.359 13.484c1.8281 1.0586 4.0898 1.0547 5.9219 0l23.359-13.484c1.8281-1.0547 2.9609-3.0156 2.9609-5.1289v-26.973c0-2.1133-1.1328-4.0703-2.9609-5.1289l-23.359-13.484c-0.91406-0.52734-1.9375-0.79297-2.9609-0.79297zm0 3.0664c0.49219 0 0.98438 0.12891 1.4258 0.38281l23.359 13.484c0.88281 0.51172 1.4258 1.4492 1.4258 2.4688v26.973c0 1.0195-0.54297 1.957-1.4258 2.4688l-23.359 13.484c-0.88281 0.51172-1.9688 0.51172-2.8516 0l-23.359-13.48c-0.88281-0.51172-1.4258-1.4492-1.4258-2.4688v-26.973c0-1.0195 0.54297-1.957 1.4258-2.4688l23.359-13.484c0.44141-0.25391 0.93359-0.38281 1.4258-0.38281z"/>
                <path d="m23.133 32.953c-0.54687 0-1.0547 0.29297-1.3281 0.76562-0.20313 0.35547-0.25781 0.77344-0.15234 1.168 0.10547 0.39062 0.36328 0.72656 0.71484 0.92969l26.098 15.066v30.473c0 0.84766 0.6875 1.5352 1.5352 1.5352s1.5352-0.6875 1.5352-1.5352v-31.359 0.003906c0-0.55078-0.29297-1.0547-0.76953-1.332l-26.863-15.508c-0.23438-0.13672-0.5-0.20703-0.76953-0.20703z"/>
                <path d="m77.117 32.805c-0.26953 0-0.53516 0.070312-0.76953 0.20703l-27.117 15.66 0.003906-0.003906c-0.35547 0.20703-0.61328 0.53906-0.71875 0.93359-0.10156 0.39453-0.046875 0.8125 0.15625 1.1641 0.42188 0.73438 1.3633 0.98438 2.0938 0.5625l27.117-15.66c0.35547-0.20312 0.60938-0.53906 0.71484-0.93359 0.10547-0.39062 0.050782-0.80859-0.15234-1.1641-0.27344-0.47266-0.78125-0.76562-1.3281-0.76562z"/>
                <path d="m55.031 33.848c0 1.0312-0.53125 2.0234-1.4727 2.7539-0.94531 0.73047-2.2227 1.1406-3.5586 1.1406-2.7773 0-5.0273-1.7461-5.0273-3.8945 0-2.1523 2.25-3.8945 5.0273-3.8945 1.3359 0 2.6133 0.41016 3.5586 1.1406 0.94141 0.73047 1.4727 1.7188 1.4727 2.7539z"/>
                <path d="m60.625 66.246c1.125 1.125 0.85938 3.2109-0.59375 4.6641s-3.5391 1.7188-4.6641 0.59375-0.85938-3.2148 0.59375-4.6641c1.4492-1.4531 3.5391-1.7188 4.6641-0.59375z"/>
                <path d="m66.965 56.219c1.125 1.125 0.85938 3.2148-0.59375 4.6641-1.4531 1.4531-3.5391 1.7188-4.6641 0.59375s-0.85938-3.2109 0.59375-4.6641 3.5391-1.7188 4.6641-0.59375z"/>
                <path d="m73.312 46.574c1.125 1.125 0.85938 3.2148-0.59375 4.6641-1.4531 1.4531-3.5391 1.7188-4.6641 0.59375-0.53906-0.53906-0.78125-1.332-0.67188-2.2109 0.11328-0.875 0.56641-1.7578 1.2656-2.4531 0.69531-0.69922 1.5781-1.1523 2.4531-1.2656 0.875-0.10938 1.6719 0.13281 2.2109 0.67188z"/>
                <path d="m40.242 51.242c-1.125 1.125-0.85938 3.2109 0.59375 4.6641 1.4492 1.4531 3.5391 1.7188 4.6641 0.59375 0.53906-0.53906 0.78125-1.3359 0.67188-2.2109-0.11328-0.875-0.56641-1.7578-1.2656-2.457-0.69531-0.69531-1.5781-1.1523-2.457-1.2617-0.875-0.11328-1.668 0.12891-2.207 0.67188z"/>
                <path d="m26.234 43.973c-0.53906 0.53906-0.78125 1.3359-0.66797 2.2109 0.10938 0.875 0.56641 1.7578 1.2617 2.457 0.69922 0.69531 1.582 1.1523 2.457 1.2617 0.875 0.11328 1.6719-0.12891 2.2109-0.66797 1.125-1.125 0.85938-3.2148-0.59375-4.668s-3.543-1.7188-4.668-0.59375z"/>
                <path d="m26.234 59.02c-0.53906 0.53906-0.78125 1.3359-0.66797 2.2109 0.10938 0.875 0.5625 1.7578 1.2617 2.4531 0.69531 0.69922 1.582 1.1523 2.457 1.2656 0.875 0.10938 1.668-0.12891 2.2109-0.67188 1.1211-1.125 0.85547-3.2148-0.59375-4.6641-1.4531-1.4531-3.543-1.7188-4.668-0.59375z"/>
                <path d="m40.242 67.164c-0.53906 0.54297-0.78125 1.3359-0.66797 2.2109 0.10938 0.875 0.5625 1.7617 1.2617 2.457 0.69531 0.69922 1.582 1.1523 2.457 1.2656 0.875 0.10938 1.668-0.13281 2.2109-0.67188 1.1211-1.125 0.85547-3.2148-0.59375-4.668-1.4531-1.4492-3.543-1.7148-4.668-0.59375z"/>
                <path d="m33.215 55.363c-1.125 1.125-0.85938 3.2148 0.59375 4.668 1.4531 1.4492 3.5391 1.7148 4.6641 0.59375 1.125-1.125 0.85938-3.2148-0.59375-4.668-1.4492-1.4492-3.5391-1.7188-4.6641-0.59375z"/>
                <text x="0.0" y="117.5" font-size="5.0" font-weight="bold" font-family="Arbeit Regular, Helvetica, Arial-Unicode, Arial, Sans-serif" fill="#000000">Created by Salman Azzumardi</text><text x="0.0" y="122.5" font-size="5.0" font-weight="bold" font-family="Arbeit Regular, Helvetica, Arial-Unicode, Arial, Sans-serif" fill="#000000">from Noun Project</text></svg>
        </symbol>
        <symbol id = "icon-board-game" viewBox = "0 0 1200 1200">
            <svg xmlns="http://www.w3.org/2000/svg" xmlns:xlink="http://www.w3.org/1999/xlink" version="1.1" x="0px" y="0px" viewBox="0 0 74 92.5" enable-background="new 0 0 74 74" xml:space="preserve"><g><path d="M24,39h6c2.206,0,4-1.794,4-4v-6c0-2.206-1.794-4-4-4h-6c-2.206,0-4,1.794-4,4v6C20,37.206,21.794,39,24,39z M22,29   c0-1.103,0.897-2,2-2h6c1.103,0,2,0.897,2,2v6c0,1.103-0.897,2-2,2h-6c-1.103,0-2-0.897-2-2V29z"/><path d="M27,35c1.654,0,3-1.346,3-3s-1.346-3-3-3s-3,1.346-3,3S25.346,35,27,35z M27,31c0.552,0,1,0.448,1,1s-0.448,1-1,1   s-1-0.448-1-1S26.448,31,27,31z"/><path d="M50,37h-6c-2.206,0-4,1.794-4,4v6c0,2.206,1.794,4,4,4h6c2.206,0,4-1.794,4-4v-6C54,38.794,52.206,37,50,37z M52,47   c0,1.103-0.897,2-2,2h-6c-1.103,0-2-0.897-2-2v-6c0-1.103,0.897-2,2-2h6c1.103,0,2,0.897,2,2V47z"/><rect x="44" y="41" width="2" height="2"/><rect x="48" y="41" width="2" height="2"/><rect x="44" y="45" width="2" height="2"/><rect x="48" y="45" width="2" height="2"/><rect x="36" y="25" width="14" height="2"/><rect x="52" y="25" width="2" height="2"/><rect x="26" y="49" width="12" height="2"/><rect x="22" y="49" width="2" height="2"/><path d="M65,13H53.113c-0.467-1.243-1.103-2.304-1.875-3.022C51.706,9.449,52,8.761,52,8c0-1.654-1.346-3-3-3s-3,1.346-3,3   c0,0.761,0.294,1.449,0.762,1.978c-0.772,0.718-1.409,1.779-1.875,3.022H9c-0.553,0-1,0.447-1,1v48c0,0.553,0.447,1,1,1h56   c0.553,0,1-0.447,1-1V14C66,13.447,65.553,13,65,13z M64,21h-6v-6h6V21z M12.887,53H10v-6h4.184C14.072,47.314,14,47.648,14,48   c0,0.761,0.294,1.449,0.762,1.978C13.991,50.696,13.354,51.757,12.887,53z M56,23v30H21.113c-0.467-1.243-1.103-2.304-1.875-3.022   C19.706,49.449,20,48.761,20,48c0-1.302-0.839-2.402-2-2.816V23H56z M16,48c0-0.552,0.448-1,1-1s1,0.448,1,1s-0.448,1-1,1   S16,48.552,16,48z M34,21v-6h6v6H34z M32,21h-6v-6h6V21z M24,21h-6v-6h6V21z M16,29h-6v-6h6V29z M16,31v6h-6v-6H16z M16,39v6h-6v-6   H16z M17,51c1.202,0,2.697,2.723,2.96,6h-5.92C14.303,53.723,15.798,51,17,51z M21,59c0.553,0,1-0.447,1-1   c0-1.005-0.112-2.024-0.314-3H24v6h-6v-2H21z M26,55h6v6h-6V55z M34,55h6v6h-6V55z M42,55h6v6h-6V55z M50,55h6v6h-6V55z M58,47h6v6   h-6V47z M58,45v-6h6v6H58z M58,37v-6h6v6H58z M58,29v-6h6v6H58z M56,15v6h-6v-2h3c0.553,0,1-0.447,1-1c0-1.005-0.112-2.024-0.314-3   H56z M48,8c0-0.552,0.448-1,1-1s1,0.448,1,1s-0.448,1-1,1S48,8.552,48,8z M49,11c1.202,0,2.697,2.723,2.96,6h-5.92   C46.303,13.723,47.798,11,49,11z M45,19h3v2h-6v-6h2.314C44.112,15.976,44,16.995,44,18C44,18.553,44.447,19,45,19z M16,15v6h-6v-6   H16z M10,55h2.314C12.112,55.976,12,56.995,12,58c0,0.553,0.447,1,1,1h3v2h-6V55z M58,61v-6h6v6H58z"/></g><text x="0" y="89" fill="#000000" font-size="5px" font-weight="bold" font-family="'Helvetica Neue', Helvetica, Arial-Unicode, Arial, Sans-serif">Created by Nack_Thanakorn</text><text x="0" y="94" fill="#000000" font-size="5px" font-weight="bold" font-family="'Helvetica Neue', Helvetica, Arial-Unicode, Arial, Sans-serif">from the Noun Project</text></svg>
        </symbol>
        <symbol id = "icon-rules" viewBox = "0 0 1200 1200">
            <svg xmlns="http://www.w3.org/2000/svg" version="1.1" viewBox="-5.0 -10.0 110.0 135.0">
                <path d="m36.773 36.785c-2.0469 0-3.8281 0.33984-5.6055 1.0742l-1.7266 0.71094c-1.5234 0.62891-2.9922 0.90625-4.7617 0.90625h-4.7266c-0.61328 0-1.1094 0.49609-1.1094 1.1094 0 0.61328 0.49609 1.1094 1.1094 1.1094h1.0742l-8.5312 15.07h-1.3828c-0.61328 0-1.1094 0.49609-1.1094 1.1094 0 7.1328 5.8008 12.934 12.934 12.934s12.934-5.8008 12.934-12.934c0-0.61328-0.49609-1.1094-1.1094-1.1094h-1.3828l-8.5352-15.07c1.9805-0.015624 3.7148-0.35937 5.4492-1.0703l1.7266-0.71094c1.5234-0.62891 2.9922-0.90625 4.7617-0.90625 0.61328 0 1.1094-0.49609 1.1094-1.1094 0-0.61328-0.49609-1.1094-1.1094-1.1094zm-13.844 31.801c-5.5312 0-10.094-4.2148-10.652-9.5977h21.305c-0.55859 5.3867-5.1211 9.5977-10.652 9.5977zm-7.8867-11.82 7.8867-13.926 7.8867 13.926zm41.922-22.133h-2.3164c1.1992-5.9961 1.1992-12.066 0.003906-18.07h0.050781c1.7969 0 3.2617-1.4648 3.2617-3.2617s-1.4648-3.2617-3.2617-3.2617h-9.4141c-1.7969 0-3.2617 1.4648-3.2617 3.2617s1.4648 3.2617 3.2617 3.2617h0.050782c-1.1992 6.0039-1.1953 12.07 0.003906 18.07h-2.3164c-1.7969 0-3.2617 1.4648-3.2617 3.2617s1.4648 3.2617 3.2617 3.2617h0.19141v37.473c0 0.1875 0.046875 0.375 0.14062 0.53906l5.668 10.211c0.19531 0.35156 0.56641 0.57031 0.97266 0.57031 0.40234 0 0.77734-0.21875 0.97266-0.57031l5.668-10.211c0.09375-0.16406 0.14062-0.35156 0.14062-0.53906v-37.473h0.19141c1.7969 0 3.2617-1.4648 3.2617-3.2617s-1.4648-3.2617-3.2617-3.2617zm-6.9688 6.6875c-1.8906 0-3.4297-1.5391-3.4297-3.4297s1.5391-3.4297 3.4297-3.4297 3.4297 1.5391 3.4297 3.4297-1.5391 3.4297-3.4297 3.4297zm-5.7461-28.02c0-0.57422 0.46484-1.0391 1.0391-1.0391h9.4141c0.57422 0 1.0391 0.46484 1.0391 1.0391s-0.46484 1.0391-1.0391 1.0391h-9.4141c-0.57422 0-1.0391-0.46484-1.0391-1.0391zm8.1367 3.2617c1.1406 5.4375 1.2461 10.93 0.32031 16.371-0.80469-0.44141-1.7266-0.69141-2.7109-0.69141-0.98047 0-1.9023 0.25391-2.7109 0.69141-0.92578-5.4414-0.82031-10.938 0.32031-16.371zm-10.398 21.328c0-0.57422 0.46484-1.0391 1.0391-1.0391h1.418c-0.0625 0.33594-0.097656 0.68359-0.097656 1.0391s0.035156 0.70312 0.097656 1.0391h-1.418c-0.57422 0-1.0391-0.46484-1.0391-1.0391zm3.4531 3.3359c0.82031 1.1172 2.0391 1.9219 3.4453 2.2031v41.113l-3.4453-6.207zm5.668 43.316v-41.113c1.4062-0.28125 2.625-1.0859 3.4453-2.2031v37.109zm5.8594-45.613h-1.418c0.0625-0.33594 0.097657-0.68359 0.097657-1.0391s-0.035157-0.70312-0.097657-1.0391h1.418c0.57422 0 1.0391 0.46484 1.0391 1.0391s-0.46484 1.0391-1.0391 1.0391zm31.918 17.832h-1.3828l-8.5312-15.07h1.0742c0.61328 0 1.1094-0.49609 1.1094-1.1094s-0.49609-1.1094-1.1094-1.1094h-4.7266c-1.7695 0-3.2383-0.27734-4.7617-0.90625l-1.7266-0.71094c-1.7812-0.73047-3.5625-1.0742-5.6055-1.0742-0.61328 0-1.1094 0.49609-1.1094 1.1094s0.49609 1.1094 1.1094 1.1094c1.7695 0 3.2383 0.27734 4.7617 0.90625l1.7266 0.71094c1.7344 0.71484 3.4688 1.0547 5.4492 1.0703l-8.5352 15.07h-1.3828c-0.61328 0-1.1094 0.49609-1.1094 1.1094 0 7.1328 5.8008 12.934 12.934 12.934 7.1328 0 12.934-5.8008 12.934-12.934 0-0.61328-0.49609-1.1094-1.1094-1.1094zm-11.82-13.926 7.8867 13.926h-15.77l7.8867-13.926zm0 25.746c-5.5312 0-10.094-4.2148-10.652-9.5977h21.305c-0.55859 5.3867-5.1211 9.5977-10.652 9.5977z"/>
                <text x="0.0" y="117.5" font-size="5.0" font-weight="bold" font-family="Arbeit Regular, Helvetica, Arial-Unicode, Arial, Sans-serif" fill="#000000">Created by Mia Elysia</text><text x="0.0" y="122.5" font-size="5.0" font-weight="bold" font-family="Arbeit Regular, Helvetica, Arial-Unicode, Arial, Sans-serif" fill="#000000">from Noun Project</text></svg>
        </symbol>
        <symbol id = "icon-token" viewBox = "0 0 1200 1200">
            <svg xmlns="http://www.w3.org/2000/svg" version="1.1" viewBox="-5.0 -10.0 110.0 135.0">
                <path d="m70.359 71.121-9.4219-36.832c7.8945-6.0391 9.3984-17.34 3.3555-25.234-6.0391-7.8945-17.336-9.3945-25.23-3.3555-7.8945 6.0391-9.3984 17.34-3.3555 25.234 0.96484 1.2617 2.0938 2.3906 3.3555 3.3555l-9.4219 36.832c-12.273 1.2266-21.625 11.551-21.641 23.887 0 1.6562 1.3438 3 3 3h78c1.6562 0 3-1.3438 3-3-0.015625-12.336-9.3672-22.66-21.641-23.887zm-20.359-63.113c6.6289 0 12 5.3711 12 12 0 6.6289-5.3711 12-12 12s-12-5.3711-12-12c0.007812-6.625 5.375-11.996 12-12zm0 30c1.8594 0 3.707-0.28516 5.4766-0.85156l8.6602 33.852h-28.273l8.6602-33.852c1.7695 0.5625 3.6172 0.85156 5.4766 0.85156zm-35.75 54c1.4766-8.6562 8.9688-14.988 17.75-15h36c8.7812 0.011719 16.273 6.3438 17.75 15z"/>
                <text x="0.0" y="117.5" font-size="5.0" font-weight="bold" font-family="Arbeit Regular, Helvetica, Arial-Unicode, Arial, Sans-serif" fill="#000000">Created by Side Project</text><text x="0.0" y="122.5" font-size="5.0" font-weight="bold" font-family="Arbeit Regular, Helvetica, Arial-Unicode, Arial, Sans-serif" fill="#000000">from Noun Project</text></svg>
        </symbol>
        <symbol id = "icon-home" viewBox = "0 0 1200 1200">

        </symbol>
        <!-- Icons go here -->
    </defs>
</svg>