<svg xmlns="http://www.w3.org/2000/svg" viewBox="0 0 96 120" x="0px" y="0px"><title>Artboard 26</title><g data-name="Outline Expand"><path d="M80,36V84a2,2,0,0,1-2,2H12a2,2,0,0,1-2-2V18a2,2,0,0,1,2-2H59a2,2,0,0,1,0,4H14V82H76V36a2,2,0,0,1,4,0Zm5.4141-14.1006L41.5732,65.74a1.9893,1.9893,0,0,1-1.1313.5655L30.5425,67.72a1.9686,1.9686,0,0,1-.2827.02,2.0005,2.0005,0,0,1-1.98-2.2832l1.4145-9.8994a2.001,2.001,0,0,1,.566-1.1308l43.84-43.8409a2.0586,2.0586,0,0,1,2.8281,0l8.4854,8.4854A1.9993,1.9993,0,0,1,85.4141,21.8994Zm-9.9,4.2427-5.6569-5.6569L33.56,56.7832l-.9434,6.6,6.6-.9424Zm5.6568-5.6567-5.6568-5.6573L72.6858,17.657l5.657,5.657Z"/></g><text x="0" y="111" fill="#000000" font-size="5px" font-weight="bold" font-family="'Helvetica Neue', Helvetica, Arial-Unicode, Arial, Sans-serif">Created by Muhammad Tajudin</text><text x="0" y="116" fill="#000000" font-size="5px" font-weight="bold" font-family="'Helvetica Neue', Helvetica, Arial-Unicode, Arial, Sans-serif">from the Noun Project</text></svg>