<svg xmlns="http://www.w3.org/2000/svg" version="1.1" viewBox="-5.0 -10.0 110.0 135.0">
 <path d="m50 17.105c-1.0234 0-2.0469 0.26562-2.9609 0.79297l-23.359 13.484c-1.8281 1.0547-2.9609 3.0156-2.9609 5.1289v26.973c0 2.1133 1.1328 4.0703 2.9609 5.1289l23.359 13.484c1.8281 1.0586 4.0898 1.0547 5.9219 0l23.359-13.484c1.8281-1.0547 2.9609-3.0156 2.9609-5.1289v-26.973c0-2.1133-1.1328-4.0703-2.9609-5.1289l-23.359-13.484c-0.91406-0.52734-1.9375-0.79297-2.9609-0.79297zm0 3.0664c0.49219 0 0.98438 0.12891 1.4258 0.38281l23.359 13.484c0.88281 0.51172 1.4258 1.4492 1.4258 2.4688v26.973c0 1.0195-0.54297 1.957-1.4258 2.4688l-23.359 13.484c-0.88281 0.51172-1.9688 0.51172-2.8516 0l-23.359-13.48c-0.88281-0.51172-1.4258-1.4492-1.4258-2.4688v-26.973c0-1.0195 0.54297-1.957 1.4258-2.4688l23.359-13.484c0.44141-0.25391 0.93359-0.38281 1.4258-0.38281z"/>
 <path d="m23.133 32.953c-0.54687 0-1.0547 0.29297-1.3281 0.76562-0.20313 0.35547-0.25781 0.77344-0.15234 1.168 0.10547 0.39062 0.36328 0.72656 0.71484 0.92969l26.098 15.066v30.473c0 0.84766 0.6875 1.5352 1.5352 1.5352s1.5352-0.6875 1.5352-1.5352v-31.359 0.003906c0-0.55078-0.29297-1.0547-0.76953-1.332l-26.863-15.508c-0.23438-0.13672-0.5-0.20703-0.76953-0.20703z"/>
 <path d="m77.117 32.805c-0.26953 0-0.53516 0.070312-0.76953 0.20703l-27.117 15.66 0.003906-0.003906c-0.35547 0.20703-0.61328 0.53906-0.71875 0.93359-0.10156 0.39453-0.046875 0.8125 0.15625 1.1641 0.42188 0.73438 1.3633 0.98438 2.0938 0.5625l27.117-15.66c0.35547-0.20312 0.60938-0.53906 0.71484-0.93359 0.10547-0.39062 0.050782-0.80859-0.15234-1.1641-0.27344-0.47266-0.78125-0.76562-1.3281-0.76562z"/>
 <path d="m55.031 33.848c0 1.0312-0.53125 2.0234-1.4727 2.7539-0.94531 0.73047-2.2227 1.1406-3.5586 1.1406-2.7773 0-5.0273-1.7461-5.0273-3.8945 0-2.1523 2.25-3.8945 5.0273-3.8945 1.3359 0 2.6133 0.41016 3.5586 1.1406 0.94141 0.73047 1.4727 1.7188 1.4727 2.7539z"/>
 <path d="m60.625 66.246c1.125 1.125 0.85938 3.2109-0.59375 4.6641s-3.5391 1.7188-4.6641 0.59375-0.85938-3.2148 0.59375-4.6641c1.4492-1.4531 3.5391-1.7188 4.6641-0.59375z"/>
 <path d="m66.965 56.219c1.125 1.125 0.85938 3.2148-0.59375 4.6641-1.4531 1.4531-3.5391 1.7188-4.6641 0.59375s-0.85938-3.2109 0.59375-4.6641 3.5391-1.7188 4.6641-0.59375z"/>
 <path d="m73.312 46.574c1.125 1.125 0.85938 3.2148-0.59375 4.6641-1.4531 1.4531-3.5391 1.7188-4.6641 0.59375-0.53906-0.53906-0.78125-1.332-0.67188-2.2109 0.11328-0.875 0.56641-1.7578 1.2656-2.4531 0.69531-0.69922 1.5781-1.1523 2.4531-1.2656 0.875-0.10938 1.6719 0.13281 2.2109 0.67188z"/>
 <path d="m40.242 51.242c-1.125 1.125-0.85938 3.2109 0.59375 4.6641 1.4492 1.4531 3.5391 1.7188 4.6641 0.59375 0.53906-0.53906 0.78125-1.3359 0.67188-2.2109-0.11328-0.875-0.56641-1.7578-1.2656-2.457-0.69531-0.69531-1.5781-1.1523-2.457-1.2617-0.875-0.11328-1.668 0.12891-2.207 0.67188z"/>
 <path d="m26.234 43.973c-0.53906 0.53906-0.78125 1.3359-0.66797 2.2109 0.10938 0.875 0.56641 1.7578 1.2617 2.457 0.69922 0.69531 1.582 1.1523 2.457 1.2617 0.875 0.11328 1.6719-0.12891 2.2109-0.66797 1.125-1.125 0.85938-3.2148-0.59375-4.668s-3.543-1.7188-4.668-0.59375z"/>
 <path d="m26.234 59.02c-0.53906 0.53906-0.78125 1.3359-0.66797 2.2109 0.10938 0.875 0.5625 1.7578 1.2617 2.4531 0.69531 0.69922 1.582 1.1523 2.457 1.2656 0.875 0.10938 1.668-0.12891 2.2109-0.67188 1.1211-1.125 0.85547-3.2148-0.59375-4.6641-1.4531-1.4531-3.543-1.7188-4.668-0.59375z"/>
 <path d="m40.242 67.164c-0.53906 0.54297-0.78125 1.3359-0.66797 2.2109 0.10938 0.875 0.5625 1.7617 1.2617 2.457 0.69531 0.69922 1.582 1.1523 2.457 1.2656 0.875 0.10938 1.668-0.13281 2.2109-0.67188 1.1211-1.125 0.85547-3.2148-0.59375-4.668-1.4531-1.4492-3.543-1.7148-4.668-0.59375z"/>
 <path d="m33.215 55.363c-1.125 1.125-0.85938 3.2148 0.59375 4.668 1.4531 1.4492 3.5391 1.7148 4.6641 0.59375 1.125-1.125 0.85938-3.2148-0.59375-4.668-1.4492-1.4492-3.5391-1.7188-4.6641-0.59375z"/>
<text x="0.0" y="117.5" font-size="5.0" font-weight="bold" font-family="Arbeit Regular, Helvetica, Arial-Unicode, Arial, Sans-serif" fill="#000000">Created by Salman Azzumardi</text><text x="0.0" y="122.5" font-size="5.0" font-weight="bold" font-family="Arbeit Regular, Helvetica, Arial-Unicode, Arial, Sans-serif" fill="#000000">from Noun Project</text></svg>