<svg xmlns="http://www.w3.org/2000/svg" version="1.1" viewBox="-5.0 -10.0 110.0 135.0">
 <path d="m11.188 47.094 4.8125-3.4062v40.406c0 1.7188 1.4062 3.125 3.125 3.125h19.812c1.7188 0 3.125-1.4062 3.125-3.125v-19.938h15.875v19.938c0 1.7188 1.4062 3.125 3.125 3.125h19.812c1.7188 0 3.125-1.4062 3.125-3.125v-40.406l4.8125 3.4062c0.5625 0.375 1.1875 0.5625 1.8125 0.5625 0.96875 0 1.9375-0.46875 2.5625-1.3438 1-1.4062 0.65625-3.3438-0.75-4.3438l-8.4375-5.9375v-16.062c0-1.7188-1.4062-3.125-3.125-3.125h-13.281c-1.7188 0-3.125 1.4062-3.125 3.125v2.3125l-12.656-8.9375c-1.0938-0.75-2.5312-0.75-3.625 0l-30.812 21.719-9.8125 6.9062c-1.4062 1-1.75 2.9375-0.75 4.3438 1 1.4375 2.9375 1.7812 4.375 0.78125z"/>
<text x="0.0" y="117.5" font-size="5.0" font-weight="bold" font-family="Arbeit Regular, Helvetica, Arial-Unicode, Arial, Sans-serif" fill="#000000">Created by Kiki Rizky</text><text x="0.0" y="122.5" font-size="5.0" font-weight="bold" font-family="Arbeit Regular, Helvetica, Arial-Unicode, Arial, Sans-serif" fill="#000000">from Noun Project</text></svg>