<svg xmlns="http://www.w3.org/2000/svg" version="1.1" viewBox="-5.0 -10.0 110.0 135.0">
 <path d="m93.562 55.609 2.2266-3.207c0.71875-1.0312 0.98828-2.2812 0.76563-3.5156-0.22266-1.2344-0.91406-2.3125-1.9453-3.0273l-2.7266-1.8945c-1.0312-0.71875-2.2812-0.99219-3.5156-0.76562-1.2344 0.22266-2.3125 0.91406-3.0273 1.9453l-16.312 23.484s-0.015625 0.011719-0.019532 0.019532c-0.003906 0.007812-0.003906 0.015624-0.007812 0.023437l-8.5625 12.328c-0.007812 0.011719-0.007812 0.027344-0.015625 0.039062-0.082031 0.125-0.13281 0.26563-0.17969 0.41406-0.015626 0.0625-0.039063 0.11719-0.050782 0.17969-0.007812 0.042969-0.03125 0.078126-0.035156 0.12109l-0.68359 8.1602h-20.969c-2.8672 0-5.1953-2.3438-5.1953-5.2266v-9.5547h17.391v9.4062c0 0.86328 0.69922 1.5625 1.5625 1.5625s1.5625-0.69922 1.5625-1.5625v-10c9.2031-4.5156 15.109-13.883 15.109-24.18 0-14.844-12.078-26.922-26.922-26.922s-26.922 12.078-26.922 26.922c0 10.297 5.8906 19.684 15.094 24.199v10.129c0 4.6055 3.7344 8.3516 8.3203 8.3516h22.406c0.23047 0 0.44531-0.058593 0.64453-0.14844 0.007812-0.003906 0.011718 0 0.019531-0.003906l8.7031-4.1016c0.042968-0.019531 0.070312-0.058594 0.10938-0.082031 0.054687-0.03125 0.10156-0.074219 0.15625-0.11719 0.11719-0.089844 0.21875-0.17969 0.30469-0.29297 0.011719-0.015625 0.027344-0.023438 0.039063-0.039063l20.891-30.078 1.3555 0.94141-6.2812 9.0391c-0.49219 0.71094-0.31641 1.6836 0.39063 2.1758 0.27344 0.1875 0.58203 0.28125 0.89062 0.28125 0.49219 0 0.98047-0.23438 1.2852-0.67188l7.1719-10.324c0.23438-0.33984 0.32812-0.76172 0.25391-1.168s-0.30469-0.76953-0.64844-1.0078l-2.6406-1.832zm-75.344-5.2578c0-13.121 10.672-23.797 23.797-23.797 13.121 0 23.797 10.676 23.797 23.797 0 9.3086-5.457 17.77-13.918 21.648h-8.3203v-13.859l6.8047-4.9141c0.69922-0.50391 0.85938-1.4844 0.35156-2.1797-0.50391-0.69531-1.4805-0.85938-2.1797-0.35156l-6.543 4.7227-6.543-4.7227c-0.70312-0.50781-1.6758-0.34375-2.1797 0.35156-0.50391 0.69922-0.34766 1.6758 0.35156 2.1797l6.8086 4.9141v13.859h-8.3281c-8.4531-3.8828-13.902-12.344-13.902-21.648zm69.691-3.4297c0.24219-0.34375 0.60156-0.57812 1.0156-0.65234 0.41406-0.074219 0.83203 0.015625 1.1797 0.25781l2.7266 1.8945c0.34375 0.24219 0.57812 0.60156 0.65234 1.0156s-0.015625 0.83594-0.25781 1.1797l-2.2266 3.2109-5.3203-3.6953zm-17.203 24.77 5.3477 3.6484-6.8359 9.8438-5.3164-3.6953 6.8047-9.8008zm-7.6602 13.012 3.457 2.4023-3.8086 1.793zm14.789-11.93-5.3477-3.6484 11.406-16.426 5.3203 3.6953-11.379 16.383z"/>
 <path d="m40.445 8.5312v5.8438c0 0.86328 0.69922 1.5625 1.5625 1.5625 0.86328 0 1.5625-0.69922 1.5625-1.5625v-5.8438c0-0.86328-0.69922-1.5625-1.5625-1.5625-0.86328 0-1.5625 0.69922-1.5625 1.5625z"/>
 <path d="m63.805 14.117-3.375 4.9492c-0.48828 0.71484-0.30078 1.6875 0.41016 2.1719 0.26953 0.18359 0.57422 0.27344 0.87891 0.27344 0.5 0 0.99219-0.23828 1.293-0.68359l3.375-4.9492c0.48828-0.71484 0.30078-1.6875-0.41016-2.1719-0.71484-0.48438-1.6875-0.30078-2.1719 0.41016z"/>
 <path d="m78.574 30.562-5.1133 2.8242c-0.75391 0.41797-1.0312 1.3672-0.61328 2.125 0.28516 0.51562 0.81641 0.80859 1.3672 0.80859 0.25391 0 0.51562-0.0625 0.75391-0.19531l5.1133-2.8242c0.75391-0.41797 1.0312-1.3672 0.61328-2.125-0.41406-0.75391-1.3672-1.0312-2.1211-0.61328z"/>
 <path d="m18.039 13.703c-0.71094 0.48438-0.89844 1.457-0.41016 2.1719l3.375 4.9492c0.30078 0.44531 0.79297 0.68359 1.293 0.68359 0.30469 0 0.60938-0.085937 0.87891-0.27344 0.71094-0.48438 0.89844-1.457 0.41016-2.1719l-3.375-4.9492c-0.48438-0.71094-1.457-0.89453-2.1719-0.41016z"/>
 <path d="m10.555 33.387-5.1133-2.8242c-0.75781-0.41797-1.707-0.14062-2.1211 0.61328-0.41797 0.75391-0.14453 1.707 0.61328 2.125l5.1133 2.8242c0.23828 0.13281 0.5 0.19531 0.75391 0.19531 0.55078 0 1.0859-0.29297 1.3672-0.80859 0.41797-0.75391 0.14453-1.707-0.61328-2.125z"/>
<text x="0.0" y="117.5" font-size="5.0" font-weight="bold" font-family="Arbeit Regular, Helvetica, Arial-Unicode, Arial, Sans-serif" fill="#000000">Created by Damong</text><text x="0.0" y="122.5" font-size="5.0" font-weight="bold" font-family="Arbeit Regular, Helvetica, Arial-Unicode, Arial, Sans-serif" fill="#000000">from Noun Project</text></svg>