<svg xmlns="http://www.w3.org/2000/svg" version="1.1" viewBox="-5.0 -10.0 110.0 135.0">
 <path d="m36.773 36.785c-2.0469 0-3.8281 0.33984-5.6055 1.0742l-1.7266 0.71094c-1.5234 0.62891-2.9922 0.90625-4.7617 0.90625h-4.7266c-0.61328 0-1.1094 0.49609-1.1094 1.1094 0 0.61328 0.49609 1.1094 1.1094 1.1094h1.0742l-8.5312 15.07h-1.3828c-0.61328 0-1.1094 0.49609-1.1094 1.1094 0 7.1328 5.8008 12.934 12.934 12.934s12.934-5.8008 12.934-12.934c0-0.61328-0.49609-1.1094-1.1094-1.1094h-1.3828l-8.5352-15.07c1.9805-0.015624 3.7148-0.35937 5.4492-1.0703l1.7266-0.71094c1.5234-0.62891 2.9922-0.90625 4.7617-0.90625 0.61328 0 1.1094-0.49609 1.1094-1.1094 0-0.61328-0.49609-1.1094-1.1094-1.1094zm-13.844 31.801c-5.5312 0-10.094-4.2148-10.652-9.5977h21.305c-0.55859 5.3867-5.1211 9.5977-10.652 9.5977zm-7.8867-11.82 7.8867-13.926 7.8867 13.926zm41.922-22.133h-2.3164c1.1992-5.9961 1.1992-12.066 0.003906-18.07h0.050781c1.7969 0 3.2617-1.4648 3.2617-3.2617s-1.4648-3.2617-3.2617-3.2617h-9.4141c-1.7969 0-3.2617 1.4648-3.2617 3.2617s1.4648 3.2617 3.2617 3.2617h0.050782c-1.1992 6.0039-1.1953 12.07 0.003906 18.07h-2.3164c-1.7969 0-3.2617 1.4648-3.2617 3.2617s1.4648 3.2617 3.2617 3.2617h0.19141v37.473c0 0.1875 0.046875 0.375 0.14062 0.53906l5.668 10.211c0.19531 0.35156 0.56641 0.57031 0.97266 0.57031 0.40234 0 0.77734-0.21875 0.97266-0.57031l5.668-10.211c0.09375-0.16406 0.14062-0.35156 0.14062-0.53906v-37.473h0.19141c1.7969 0 3.2617-1.4648 3.2617-3.2617s-1.4648-3.2617-3.2617-3.2617zm-6.9688 6.6875c-1.8906 0-3.4297-1.5391-3.4297-3.4297s1.5391-3.4297 3.4297-3.4297 3.4297 1.5391 3.4297 3.4297-1.5391 3.4297-3.4297 3.4297zm-5.7461-28.02c0-0.57422 0.46484-1.0391 1.0391-1.0391h9.4141c0.57422 0 1.0391 0.46484 1.0391 1.0391s-0.46484 1.0391-1.0391 1.0391h-9.4141c-0.57422 0-1.0391-0.46484-1.0391-1.0391zm8.1367 3.2617c1.1406 5.4375 1.2461 10.93 0.32031 16.371-0.80469-0.44141-1.7266-0.69141-2.7109-0.69141-0.98047 0-1.9023 0.25391-2.7109 0.69141-0.92578-5.4414-0.82031-10.938 0.32031-16.371zm-10.398 21.328c0-0.57422 0.46484-1.0391 1.0391-1.0391h1.418c-0.0625 0.33594-0.097656 0.68359-0.097656 1.0391s0.035156 0.70312 0.097656 1.0391h-1.418c-0.57422 0-1.0391-0.46484-1.0391-1.0391zm3.4531 3.3359c0.82031 1.1172 2.0391 1.9219 3.4453 2.2031v41.113l-3.4453-6.207zm5.668 43.316v-41.113c1.4062-0.28125 2.625-1.0859 3.4453-2.2031v37.109zm5.8594-45.613h-1.418c0.0625-0.33594 0.097657-0.68359 0.097657-1.0391s-0.035157-0.70312-0.097657-1.0391h1.418c0.57422 0 1.0391 0.46484 1.0391 1.0391s-0.46484 1.0391-1.0391 1.0391zm31.918 17.832h-1.3828l-8.5312-15.07h1.0742c0.61328 0 1.1094-0.49609 1.1094-1.1094s-0.49609-1.1094-1.1094-1.1094h-4.7266c-1.7695 0-3.2383-0.27734-4.7617-0.90625l-1.7266-0.71094c-1.7812-0.73047-3.5625-1.0742-5.6055-1.0742-0.61328 0-1.1094 0.49609-1.1094 1.1094s0.49609 1.1094 1.1094 1.1094c1.7695 0 3.2383 0.27734 4.7617 0.90625l1.7266 0.71094c1.7344 0.71484 3.4688 1.0547 5.4492 1.0703l-8.5352 15.07h-1.3828c-0.61328 0-1.1094 0.49609-1.1094 1.1094 0 7.1328 5.8008 12.934 12.934 12.934 7.1328 0 12.934-5.8008 12.934-12.934 0-0.61328-0.49609-1.1094-1.1094-1.1094zm-11.82-13.926 7.8867 13.926h-15.77l7.8867-13.926zm0 25.746c-5.5312 0-10.094-4.2148-10.652-9.5977h21.305c-0.55859 5.3867-5.1211 9.5977-10.652 9.5977z"/>
<text x="0.0" y="117.5" font-size="5.0" font-weight="bold" font-family="Arbeit Regular, Helvetica, Arial-Unicode, Arial, Sans-serif" fill="#000000">Created by Mia Elysia</text><text x="0.0" y="122.5" font-size="5.0" font-weight="bold" font-family="Arbeit Regular, Helvetica, Arial-Unicode, Arial, Sans-serif" fill="#000000">from Noun Project</text></svg>