<svg xmlns="http://www.w3.org/2000/svg" version="1.1" viewBox="-5.0 -10.0 110.0 135.0">
 <path d="m86.586 25.914-15.625-15.625c-0.58594-0.58594-1.3828-0.91406-2.2109-0.91406h-48.453c-4.2969 0-7.7969 3.5-7.7969 7.7969v65.656c0 4.2969 3.5 7.7969 7.7969 7.7969h59.406c4.2969 0 7.7969-3.5 7.7969-7.7969v-54.703c0-0.82812-0.32812-1.625-0.91406-2.2109zm-25.648-10.289v12.406h-25v-12.406zm-28.125 68.75v-28.164c0-0.89063 0.72656-1.6172 1.6172-1.6172h31.141c0.89063 0 1.6172 0.72656 1.6172 1.6172v28.164zm48.438-1.5469c0 0.85156-0.69531 1.5469-1.5469 1.5469h-6.2656v-28.164c0-4.3359-3.5312-7.8672-7.8672-7.8672h-31.141c-4.3359 0-7.8672 3.5312-7.8672 7.8672v28.164h-6.2656c-0.85156 0-1.5469-0.69531-1.5469-1.5469v-65.656c0-0.85156 0.69531-1.5469 1.5469-1.5469h9.3906v12.5c0 3.3984 2.7656 6.1562 6.1562 6.1562h25.188c3.3984 0 6.1562-2.7656 6.1562-6.1562v-12.5h0.26562l13.797 13.797z"/>
<text x="0.0" y="117.5" font-size="5.0" font-weight="bold" font-family="Arbeit Regular, Helvetica, Arial-Unicode, Arial, Sans-serif" fill="#000000">Created by shashank singh</text><text x="0.0" y="122.5" font-size="5.0" font-weight="bold" font-family="Arbeit Regular, Helvetica, Arial-Unicode, Arial, Sans-serif" fill="#000000">from Noun Project</text></svg>